<svg  style="position: absolute; width: 32; height: 32; overflow: hidden;" version="1.1" xmlns="http://www.w3.org/2000/svg" xmlns:xlink="http://www.w3.org/1999/xlink">
<defs>
<symbol id="icon-contact_page" viewBox="0 0 32 32" aria-hidden="true">
<path d="M16 18.667q1.1 0 1.883-0.783t0.783-1.883-0.783-1.883-1.883-0.783-1.883 0.783-0.783 1.883 0.783 1.883 1.883 0.783zM10.667 24h10.667v-0.767q0-0.8-0.433-1.467t-1.2-1q-0.867-0.367-1.783-0.567t-1.917-0.2-1.917 0.2-1.783 0.567q-0.767 0.333-1.2 1t-0.433 1.467v0.767zM24 29.333h-16q-1.1 0-1.883-0.783t-0.783-1.883v-21.333q0-1.1 0.783-1.883t1.883-0.783h10.667l8 8v16q0 1.1-0.783 1.883t-1.883 0.783zM24 26.667v-14.867l-6.467-6.467h-9.533v21.333h16zM8 26.667v0z"></path>
</symbol>
<symbol id="icon-files" viewBox="0 0 32 32" aria-hidden="true">
<path d="M5.333 26.667q-1.1 0-1.883-0.783t-0.783-1.883v-13.333q0-1.1 0.783-1.883t1.883-0.783h8l2.667-2.667h10.667q1.1 0 1.883 0.783t0.783 1.883v16q0 1.1-0.783 1.883t-1.883 0.783h-21.333zM7.767 17.333h6.9v-6.9l-6.9 6.9zM5.333 16l5.333-5.333h-5.333v5.333zM5.333 20v4h21.333v-16h-9.333v9.333q0 1.1-0.783 1.883t-1.883 0.783h-9.333z"></path>
</symbol>
<symbol id="icon-folder" viewBox="0 0 32 32" aria-hidden="true">
<path d="M14.467 22.1l7.533-7.567-1.867-1.867-5.667 5.667-2.833-2.833-1.9 1.9 4.733 4.7zM5.333 26.667q-1.1 0-1.883-0.783t-0.783-1.883v-16q0-1.1 0.783-1.883t1.883-0.783h8l2.667 2.667h10.667q1.1 0 1.883 0.783t0.783 1.883v13.333q0 1.1-0.783 1.883t-1.883 0.783h-21.333zM5.333 24h21.333v-13.333h-11.767l-2.667-2.667h-6.9v16zM5.333 24v0z"></path>
</symbol>
<symbol id="icon-home" viewBox="0 0 32 32" aria-hidden="true">
<path d="M8 25.333h4v-8h8v8h4v-12l-8-6-8 6v12zM5.333 28v-16l10.667-8 10.667 8v16h-9.333v-8h-2.667v8h-9.333z"></path>
</symbol>
<symbol id="icon-person" viewBox="0 0 32 32" aria-hidden="true">
<path d="M16 16q-2.2 0-3.767-1.567t-1.567-3.767 1.567-3.767 3.767-1.567 3.767 1.567 1.567 3.767-1.567 3.767-3.767 1.567zM5.333 26.667v-3.733q0-1.133 0.583-2.083t1.55-1.45q2.067-1.033 4.2-1.55t4.333-0.517 4.333 0.517 4.2 1.55q0.967 0.5 1.55 1.45t0.583 2.083v3.733h-21.333zM8 24h16v-1.067q0-0.367-0.183-0.667t-0.483-0.467q-1.8-0.9-3.633-1.35t-3.7-0.45-3.7 0.45-3.633 1.35q-0.3 0.167-0.483 0.467t-0.183 0.667v1.067zM16 13.333q1.1 0 1.883-0.783t0.783-1.883-0.783-1.883-1.883-0.783-1.883 0.783-0.783 1.883 0.783 1.883 1.883 0.783z"></path>
</symbol>
</defs>
</svg>
